<?xml version="1.0" encoding="UTF-8"?>
<svg id="Layer_1" xmlns="http://www.w3.org/2000/svg" version="1.1" viewBox="0 0 1024 720">
  <!-- Generator: Adobe Illustrator 30.1.0, SVG Export Plug-In . SVG Version: 2.1.1 Build 136)  -->
  <defs>
    <style>
      .st0 {
        fill: #259531;
      }

      .st1 {
        fill: #4aad64;
      }

      .st2 {
        fill: #414042;
      }
    </style>
  </defs>
  <path class="st1" d="M415.09,327.92c0-6.82,2.79-12.67,8.38-17.56s13.25-7.33,23-7.33c8.3,0,17.97,2.17,29,6.51v19h-.59c-.31-.31-1.22-1.21-2.73-2.68s-2.56-2.48-3.14-3l-3.08-2.9c-1.13-1.1-2.31-2.13-3.55-3.09-.9-.65-2.06-1.53-3.49-2.61-1.18-.92-2.42-1.73-3.73-2.45-1-.54-2.25-1.12-3.6-1.74-1.25-.58-2.56-1.03-3.9-1.34-1.22-.27-2.47-.41-3.72-.41-3.43-.16-6.78,1.01-9.37,3.26-2.24,1.9-3.54,4.68-3.57,7.62,0,4.42,3.37,8.37,10.12,11.86,2.32,1.17,7.01,3.15,14.07,5.94,15.87,6.51,23.81,15.59,23.81,27.22,0,8.07-3.06,14.28-9.18,18.62-6.12,4.34-13.61,6.51-22.46,6.51s-19.27-2.44-31.06-7.33v-19.43h.81c6.91,7.14,11.99,11.91,15.24,14.31,6.13,4.67,11.75,7,16.87,7,3.44.1,6.81-1.04,9.49-3.2,2.62-2.19,4.06-5.49,3.89-8.9.07-4.28-2.03-8.31-5.58-10.7-3.72-2.71-9.34-5.46-16.87-8.26-7.91-2.79-14.06-6.15-18.44-10.06-4.32-3.72-6.74-9.17-6.62-14.86Z"/>
  <path class="st1" d="M501.89,329.32v37.81c0,3.8.93,6.59,2.79,8.38,1.95,1.82,4.55,2.78,7.21,2.67,3.79-.14,7.46-1.35,10.59-3.49-.15-1.7-.23-2.91-.23-3.6v-23.39c-.02-1.99-.17-3.97-.47-5.93-.31-2.17-.64-4-1-5.47s-.69-2.89-1-4.25c-.22-.75-.39-1.5-.53-2.27v-.46h19.9v40.25c0,1.58.1,3.15.29,4.72.19,1.66.44,3.24.75,4.71s.58,2.73.82,3.78.5,2.07.81,3.08l.47,1.63v.51h-16.2c-1.51-3.26-2.55-6.73-3.09-10.28-4.85,7.52-11.15,11.28-18.9,11.28-5.06.17-9.99-1.65-13.73-5.06-3.65-3.37-5.47-8.2-5.47-14.48v-21.76c-.01-1.99-.17-3.97-.46-5.93-.32-2.17-.65-4-1-5.47s-.7-2.89-1.05-4.25c-.22-.75-.39-1.5-.52-2.27v-.46h20.02Z"/>
  <path class="st1" d="M546.21,329.78l20.12-.46v8.14c4.04-5.89,9.74-8.83,17.11-8.84,6.3-.06,12.28,2.77,16.23,7.68,4.38,5.12,6.57,12.33,6.57,21.64,0,9.93-2.42,17.6-7.27,23s-10.5,8.09-16.97,8.06c-6.07.13-11.86-2.52-15.71-7.21v11c.02,1.99.17,3.97.47,5.93.31,2.18.65,4,1,5.47.35,1.47.7,2.89,1.05,4.25.22.75.39,1.5.52,2.27v.46h-23v-.46c.14-.77.31-1.52.53-2.27.35-1.36.7-2.78,1-4.25s.68-3.29,1-5.47c.29-1.96.44-3.95.46-5.93v-44.74c-.02-2.52-.25-5.03-.7-7.5-.47-2.68-1-5.06-1.51-7.16s-.82-3.18-.82-3.26l-.08-.35ZM574.83,380.51c4.42,0,7.7-2.11,9.83-6.34,2.13-4.23,3.2-9.52,3.2-15.88,0-5.82-1-10.61-3-14.37-1.67-3.57-5.31-5.8-9.25-5.64-3.1,0-6.2,1.36-9.31,4.07v35.14c2.46,1.87,5.44,2.93,8.53,3.02Z"/>
  <path class="st1" d="M609.73,329.78l20.13-.46v8.14c4-5.89,9.7-8.83,17.1-8.84,6.3-.07,12.28,2.77,16.23,7.68,4.38,5.12,6.57,12.33,6.57,21.64,0,9.93-2.42,17.6-7.27,23s-10.49,8.09-16.93,8.06c-6.06.14-11.85-2.52-15.7-7.21v11c.01,1.99.17,3.97.46,5.93.31,2.18.64,4,1,5.47.35,1.47.7,2.89,1.05,4.25.22.75.39,1.5.52,2.27v.46h-23v-.46c.14-.77.31-1.52.53-2.27.35-1.36.7-2.78,1-4.25s.68-3.29,1-5.47c.29-1.96.44-3.95.46-5.93v-44.74c-.02-2.52-.25-5.03-.7-7.5-.46-2.68-1-5.06-1.51-7.16s-.82-3.18-.82-3.26l-.12-.35ZM638.35,380.51c4.42,0,7.7-2.11,9.83-6.34,2.13-4.23,3.2-9.52,3.2-15.88,0-5.82-1-10.61-3-14.37-1.67-3.57-5.31-5.8-9.25-5.64-3.1,0-6.2,1.36-9.3,4.07v35.14c2.46,1.87,5.43,2.93,8.52,3.02Z"/>
  <path class="st1" d="M664.76,304.19h73.06v23.62h-.58c-1-1.05-1.93-2.16-2.79-3.32-1.63-2.05-3.4-4.17-5.3-6.34-2.02-2.28-4.33-4.3-6.86-6-2.17-1.64-4.78-2.6-7.5-2.74h-4.43v60.15c.02,1.99.17,3.97.47,5.94.31,2.17.64,3.99,1,5.46.35,1.48.7,2.9,1,4.25.21.75.39,1.5.53,2.27v.52h-24.05v-.47c.13-.77.31-1.52.52-2.27.35-1.35.7-2.77,1-4.25s.68-3.29,1-5.46c.29-1.97.44-3.95.46-5.94v-60.19h-4.65c-2.87,0-6.01,1.44-9.42,4.31-3.3,2.73-6.31,5.79-9,9.13-2.56,3.22-3.92,4.87-4.08,4.95h-.46l.08-23.62Z"/>
  <path class="st1" d="M742.71,385.16c.31-1.32.64-2.71,1-4.19s.68-3.29,1-5.46c.3-1.97.45-3.95.47-5.94v-21.87c-.02-1.99-.17-3.97-.47-5.93-.31-2.17-.64-4-1-5.47s-.69-2.89-1-4.25c-.22-.75-.39-1.5-.52-2.27v-.46h19.81v11.29c2.4-4.89,5.17-8.22,8.32-10,2.68-1.65,5.75-2.57,8.9-2.68,2.46.04,4.89.47,7.21,1.28l-2.68,18.15h-.46c-1.74-1.84-3.76-3.39-6-4.59-2.27-1.16-4.78-1.74-7.33-1.69-2.88.03-5.68.97-8,2.68v25.82c0,1.58.1,3.15.29,4.72.19,1.66.44,3.24.75,4.71s.59,2.73.82,3.78.5,2.07.82,3.08l.46,1.63v.5h-23v-.47c.16-.8.36-1.59.61-2.37Z"/>
  <path class="st1" d="M795.29,336.65c5.43-5.33,12.57-8,21.41-8s15.51,2.77,20,8.32c4.42,5.55,6.63,12.35,6.63,20.42h-37.57c.62,6.36,2.42,11.38,5.41,15.06,2.99,3.68,7.26,5.53,12.83,5.55,6,0,12.05-2.25,18.15-6.75l.46.24c-1.94,4.95-5.25,9.24-9.54,12.38-4.79,3.6-10.65,5.47-16.64,5.3-7.64.1-15.02-2.77-20.59-8-5.82-5.33-8.73-12.8-8.72-22.4.02-9.31,2.74-16.69,8.17-22.12ZM826.47,351.07c-.31-11.86-3.69-17.79-10.12-17.79-3.8,0-6.55,1.9-8.26,5.69-1.82,4.38-2.69,9.1-2.56,13.85v1.75l20.94-3.5Z"/>
  <path class="st1" d="M856.14,336.65c5.43-5.33,12.57-8,21.4-8s15.5,2.77,20,8.32c4.43,5.55,6.65,12.35,6.64,20.42h-37.57c.62,6.36,2.42,11.38,5.41,15.06,2.99,3.68,7.27,5.53,12.85,5.55,6,0,12.05-2.25,18.15-6.75l.47.24c-1.94,4.92-5.23,9.19-9.49,12.33-4.79,3.6-10.65,5.47-16.64,5.3-7.64.1-15.02-2.77-20.59-8-5.82-5.33-8.73-12.8-8.73-22.4-.03-9.28,2.67-16.64,8.1-22.07ZM887.32,351.07c-.31-11.86-3.69-17.79-10.12-17.79-3.81,0-6.57,1.9-8.26,5.69-1.82,4.38-2.7,9.1-2.57,13.85v1.75l20.95-3.5Z"/>
  <path class="st2" d="M433.26,433.31c.02,1.46-.24,2.92-.75,4.29-.47,1.23-1.18,2.36-2.1,3.3-.93.93-2.04,1.66-3.26,2.13-1.34.51-2.77.77-4.21.75h-7.85v-21h7.85c1.44-.02,2.87.24,4.21.76,1.22.47,2.33,1.2,3.26,2.13.92.95,1.64,2.07,2.1,3.31.52,1.38.77,2.85.75,4.33ZM430.35,433.31c.02-1.17-.16-2.34-.53-3.45-.32-.95-.82-1.83-1.49-2.58-.65-.71-1.45-1.25-2.34-1.6-.97-.39-2.01-.58-3.05-.56h-5v16.37h5c1.04.01,2.08-.18,3.05-.56.89-.35,1.69-.9,2.34-1.6.67-.74,1.18-1.62,1.49-2.57.37-1.11.55-2.28.53-3.45Z"/>
  <path class="st2" d="M442.58,428.73c.84,0,1.68.14,2.46.45.73.29,1.39.72,1.94,1.28.57.6,1,1.3,1.28,2.08.32.9.48,1.86.46,2.82.03.28-.02.56-.13.82-.12.15-.31.22-.5.2h-9.86c0,.83.13,1.65.39,2.44.21.64.55,1.23,1,1.74.41.44.9.78,1.46,1,.61.23,1.25.35,1.9.34.57.01,1.14-.07,1.69-.23.42-.13.83-.29,1.22-.49.3-.14.58-.31.86-.49.17-.13.38-.2.59-.22.2,0,.38.08.5.24l.73.95c-.33.39-.72.73-1.15,1-.45.29-.93.53-1.44.71-.52.18-1.05.32-1.59.42-.54.09-1.08.14-1.63.14-.97,0-1.93-.17-2.83-.52-.84-.34-1.61-.86-2.23-1.52-.66-.72-1.16-1.56-1.48-2.48-.37-1.1-.54-2.25-.52-3.4,0-.98.15-1.96.47-2.89.3-.86.76-1.65,1.37-2.33.61-.67,1.35-1.2,2.18-1.56.91-.36,1.88-.53,2.86-.5ZM442.64,430.65c-1.11-.07-2.19.33-3,1.09-.77.83-1.24,1.88-1.35,3h8.06c0-.56-.08-1.12-.25-1.66-.15-.48-.4-.92-.73-1.3-.32-.37-.73-.66-1.18-.85-.49-.2-1.02-.29-1.55-.28h0Z"/>
  <path class="st2" d="M455.52,424.31c0,.24-.05.49-.15.71-.1.22-.24.42-.41.59-.17.17-.37.3-.59.4-.23.1-.47.15-.72.15-.24,0-.49-.05-.71-.15-.22-.1-.41-.23-.58-.4-.36-.34-.56-.81-.55-1.3,0-.25.05-.49.14-.72.09-.23.23-.43.41-.6.17-.17.36-.3.58-.4.22-.1.47-.15.71-.15.25,0,.49.05.72.15.22.1.42.23.59.4.17.17.31.38.41.6.1.23.15.47.15.72ZM454.94,428.96v14.82h-2.61v-14.78l2.61-.04Z"/>
  <path class="st2" d="M459.53,443.78v-14.78h1.55c.34-.02.64.22.7.55l.21,1.61c.62-.7,1.35-1.28,2.16-1.73.84-.45,1.79-.68,2.75-.66.73-.01,1.46.12,2.14.4.6.25,1.13.65,1.55,1.15.45.52.79,1.12,1,1.77.22.75.33,1.52.32,2.3v9.43h-2.6v-9.43c.06-.93-.22-1.86-.77-2.61-.6-.66-1.47-1-2.35-.93-.76,0-1.5.18-2.16.55-.69.4-1.32.91-1.85,1.51v10.91l-2.65-.04Z"/>
  <path class="st2" d="M479.51,422.82h2.35c.23,0,.45.06.63.19.16.12.28.29.34.48l4.33,14.57c.08.27.15.55.21.85s.12.62.18.95c.07-.33.14-.67.21-1,.06-.28.13-.57.23-.84l4.93-14.57c.07-.18.19-.34.34-.46.18-.14.4-.21.63-.21h.81c.23,0,.45.06.63.19.16.13.27.29.34.48l4.9,14.57c.19.57.35,1.15.47,1.74.06-.32.11-.63.16-.92.05-.28.11-.55.19-.82l4.34-14.57c.06-.18.17-.35.33-.46.18-.14.4-.21.62-.21h2.21l-6.54,21h-2.54l-5.31-16c-.12-.34-.22-.69-.29-1.05,0,.2-.1.39-.14.57s-.09.34-.14.48l-5.34,16h-2.59l-6.49-20.96Z"/>
  <path class="st2" d="M516.78,428.73c1-.01,2,.17,2.93.54.85.34,1.6.87,2.22,1.54.63.69,1.11,1.51,1.4,2.4.65,2.06.65,4.26,0,6.32-.29.89-.77,1.7-1.4,2.39-.61.67-1.37,1.2-2.22,1.53-1.89.72-3.98.72-5.87,0-.85-.34-1.61-.86-2.23-1.53-.63-.69-1.11-1.5-1.42-2.39-.65-2.06-.65-4.26,0-6.32.3-.89.79-1.71,1.42-2.4.62-.67,1.38-1.2,2.23-1.54.94-.37,1.93-.55,2.94-.54ZM516.78,441.95c1.27.09,2.5-.46,3.27-1.47,1.44-2.55,1.44-5.67,0-8.22-.77-1.01-2-1.57-3.27-1.48-.66-.02-1.32.11-1.93.38-.54.24-1.01.62-1.37,1.1-.39.52-.67,1.12-.82,1.76-.36,1.55-.36,3.17,0,4.72.15.63.43,1.22.82,1.74.36.47.83.85,1.37,1.09.6.29,1.26.43,1.93.43v-.05Z"/>
  <path class="st2" d="M527,443.78v-21.54h2.61v8.76c.6-.65,1.31-1.2,2.1-1.61.83-.42,1.74-.63,2.67-.61.73-.01,1.46.12,2.14.4.6.26,1.13.65,1.55,1.15.43.52.75,1.12.94,1.77.22.75.33,1.52.32,2.3v9.43h-2.6v-9.43c.06-.93-.22-1.86-.77-2.61-.6-.66-1.46-1-2.35-.93-.75,0-1.49.19-2.15.55-.7.4-1.32.91-1.85,1.51v10.91l-2.61-.05Z"/>
  <path class="st2" d="M546.2,422.24v21.54h-2.6v-21.54h2.6Z"/>
  <path class="st2" d="M550.88,443.78v-21.54h2.62v8.86c.6-.69,1.32-1.28,2.12-1.72.84-.44,1.77-.67,2.72-.65.8-.01,1.6.15,2.33.48.7.33,1.3.82,1.77,1.44.52.71.9,1.52,1.13,2.37.27,1.06.41,2.16.39,3.26,0,1.03-.14,2.06-.44,3.05-.26.89-.69,1.72-1.27,2.44-1.14,1.43-2.87,2.25-4.7,2.22-.84.02-1.68-.17-2.43-.56-.69-.39-1.28-.92-1.75-1.55l-.13,1.35c-.04.33-.33.58-.67.55h-1.69ZM557.5,430.78c-.78-.02-1.56.18-2.23.58-.69.44-1.29,1-1.77,1.66v7.16c.39.58.93,1.05,1.56,1.36.6.28,1.25.41,1.91.4,1.24.06,2.44-.49,3.19-1.48.81-1.25,1.2-2.72,1.11-4.21.01-.84-.07-1.67-.26-2.49-.14-.61-.39-1.19-.74-1.7-.29-.44-.7-.79-1.18-1-.51-.19-1.05-.28-1.59-.25v-.03Z"/>
  <path class="st2" d="M573,428.73c.84,0,1.68.14,2.46.45.73.29,1.4.72,1.95,1.28.56.6,1,1.31,1.28,2.08.32.91.47,1.86.46,2.82.02.28-.02.56-.14.82-.12.15-.3.22-.49.2h-9.86c0,.83.13,1.65.38,2.44.21.64.55,1.23,1,1.74.41.44.91.78,1.47,1,.61.23,1.25.35,1.9.34.57,0,1.14-.07,1.69-.23.73-.23,1.43-.57,2.07-1,.17-.13.38-.21.6-.22.19-.01.38.08.49.24l.73.95c-.33.39-.72.73-1.15,1-.45.29-.93.53-1.44.71-.52.19-1.05.33-1.59.42-.54.09-1.08.14-1.62.14-.97,0-1.93-.17-2.83-.52-.85-.34-1.61-.86-2.24-1.52-.66-.72-1.16-1.56-1.47-2.48-.37-1.09-.55-2.24-.53-3.4,0-.98.15-1.96.48-2.89.29-.86.76-1.65,1.37-2.33.61-.67,1.35-1.2,2.18-1.56.91-.35,1.88-.51,2.85-.48ZM573.06,430.65c-1.11-.07-2.19.33-3,1.09-.77.82-1.24,1.88-1.34,3h8.06c0-.56-.08-1.12-.25-1.66-.15-.48-.41-.92-.74-1.3-.32-.37-.72-.66-1.17-.85-.49-.2-1.02-.29-1.55-.28h-.01Z"/>
  <path class="st2" d="M583.06,443.78v-12.59l-1.64-.19c-.18-.04-.35-.12-.5-.23-.13-.11-.21-.27-.2-.44v-1.07h2.34v-.82c-.01-.85.13-1.69.43-2.49.26-.76.7-1.44,1.27-2,.6-.57,1.32-1,2.11-1.27.97-.32,1.98-.47,3-.45.38,0,.76.02,1.13.07.34.04.68.12,1,.23l-.08,1.36c0,.11-.08.2-.18.23-.14.02-.28.02-.42,0h-.73c-1.35-.12-2.69.26-3.77,1.07-.84.86-1.27,2.03-1.18,3.23v.75h8.95v14.52h-2.6v-12.54h-6.26v12.63h-2.67Z"/>
  <path class="st2" d="M599.15,443.78v-14.78h1.55c.34-.03.64.21.7.55l.21,1.61c.61-.69,1.34-1.28,2.15-1.73.85-.45,1.8-.68,2.76-.66.74-.01,1.47.12,2.15.4.6.26,1.13.65,1.55,1.15.43.52.75,1.12.94,1.77.22.75.33,1.52.32,2.3v9.43h-2.61v-9.43c.06-.93-.21-1.86-.76-2.61-.6-.66-1.47-1-2.35-.93-.76,0-1.5.18-2.16.55-.69.4-1.31.91-1.84,1.51v10.91l-2.61-.04Z"/>
  <path class="st2" d="M625.84,443.78c-.34.03-.64-.21-.7-.54l-.23-1.8c-.61.75-1.35,1.37-2.18,1.85-.86.48-1.82.72-2.8.7-.8,0-1.59-.16-2.31-.49-.7-.33-1.3-.83-1.77-1.44-.52-.71-.9-1.52-1.12-2.37-.28-1.06-.42-2.16-.4-3.26,0-1.04.14-2.07.44-3.06.26-.89.69-1.71,1.26-2.44.54-.69,1.22-1.25,2-1.64.84-.4,1.76-.6,2.69-.59.8-.02,1.59.14,2.32.46.66.32,1.24.76,1.73,1.3v-8.22h2.6v21.54h-1.53ZM620.84,441.88c.78.02,1.56-.18,2.23-.58.68-.44,1.28-1,1.76-1.66v-7.16c-.4-.58-.94-1.05-1.57-1.36-.6-.27-1.25-.4-1.9-.39-1.24-.06-2.44.49-3.19,1.48-.81,1.25-1.2,2.73-1.11,4.22-.02.83.07,1.66.25,2.47.13.61.38,1.19.73,1.7.3.44.71.78,1.19,1,.5.2,1.03.3,1.57.28h.04Z"/>
  <path class="st2" d="M637.63,428.73c.84,0,1.68.14,2.46.45.73.28,1.39.72,1.94,1.28.57.59,1.01,1.3,1.28,2.08.32.9.48,1.86.46,2.82.03.28-.02.56-.13.82-.12.15-.3.22-.49.2h-9.86c0,.83.13,1.65.38,2.44.21.64.55,1.23,1,1.74.41.44.9.78,1.46,1,.61.23,1.26.35,1.91.34.57,0,1.14-.07,1.68-.23.42-.13.83-.29,1.23-.49.29-.15.58-.31.85-.49.17-.13.38-.21.6-.22.19-.01.38.08.49.24l.73.95c-.33.39-.72.73-1.15,1-.45.29-.93.53-1.44.71-.52.19-1.05.33-1.59.42-.54.09-1.08.14-1.62.14-.97,0-1.93-.17-2.84-.52-.84-.34-1.6-.86-2.23-1.52-.66-.72-1.16-1.56-1.47-2.48-.37-1.09-.55-2.24-.53-3.4,0-.98.15-1.96.48-2.89.29-.86.75-1.65,1.36-2.33.61-.67,1.36-1.2,2.19-1.56.91-.36,1.88-.53,2.85-.5ZM637.69,430.65c-1.11-.07-2.19.33-3,1.09-.77.83-1.24,1.88-1.35,3h8.06c0-.56-.08-1.12-.25-1.66-.15-.48-.4-.92-.73-1.3-.32-.37-.73-.66-1.18-.85-.49-.2-1.02-.29-1.55-.28h0Z"/>
  <path class="st2" d="M647.09,443.78v-14.78h1.55c.34-.02.65.21.71.55l.2,1.61c.61-.7,1.35-1.28,2.16-1.73,1.52-.78,3.3-.88,4.9-.26.6.26,1.13.65,1.55,1.15.43.52.75,1.12.94,1.77.22.75.33,1.52.33,2.3v9.43h-2.61v-9.43c.06-.93-.22-1.86-.77-2.61-.59-.66-1.46-1-2.34-.93-.76,0-1.5.18-2.16.55-.7.4-1.32.91-1.85,1.51v10.91l-2.61-.04Z"/>
  <path class="st2" d="M662.51,442.17c0-.24.04-.49.14-.71.09-.22.22-.42.38-.59.16-.17.36-.3.57-.39.23-.1.47-.15.72-.15.25,0,.49.05.72.15.22.09.41.22.58.39.17.17.3.37.39.59.09.23.14.47.14.71,0,.25-.05.5-.14.73-.09.22-.22.41-.39.57-.16.17-.36.3-.58.39-.23.1-.47.14-.72.14-.25,0-.49-.04-.72-.14-.22-.09-.41-.22-.57-.39-.34-.35-.53-.81-.52-1.3h0Z"/>
  <path class="st2" d="M683.76,441.53c.8.01,1.59-.14,2.33-.44.66-.28,1.25-.7,1.73-1.23.48-.54.85-1.17,1.08-1.86.26-.78.39-1.59.38-2.41v-12.77h2.82v12.74c0,1.15-.19,2.29-.58,3.37-.36,1-.93,1.91-1.65,2.68-.74.77-1.64,1.38-2.63,1.78-2.25.86-4.75.86-7,0-.99-.4-1.89-1.01-2.63-1.78-.73-.77-1.3-1.68-1.66-2.68-.4-1.08-.59-2.22-.58-3.37v-12.74h2.82v12.73c0,.82.12,1.63.37,2.41.23.7.6,1.34,1.09,1.89.48.53,1.08.95,1.74,1.23.75.32,1.56.47,2.37.45Z"/>
  <path class="st2" d="M696.56,443.78v-14.78h1.55c.34-.02.64.22.7.55l.21,1.61c.61-.69,1.34-1.28,2.15-1.73.85-.45,1.8-.68,2.76-.66.73-.01,1.46.12,2.14.4.6.25,1.13.65,1.55,1.15.45.52.79,1.12,1,1.77.22.75.33,1.52.32,2.3v9.43h-2.6v-9.43c.06-.93-.22-1.86-.77-2.61-.6-.66-1.47-1-2.35-.93-.76,0-1.5.18-2.16.55-.69.4-1.32.91-1.85,1.51v10.91l-2.65-.04Z"/>
  <path class="st2" d="M721.31,431.41c-.1.2-.31.33-.54.32-.18,0-.35-.06-.5-.16-.19-.11-.42-.23-.69-.36-.32-.15-.66-.27-1-.36-.43-.12-.87-.18-1.32-.17-.4,0-.8.05-1.18.17-.32.1-.63.25-.9.45-.24.19-.43.42-.57.69-.13.26-.2.55-.2.84-.01.35.11.68.33.95.25.27.54.5.87.66.4.19.81.36,1.23.49l1.41.45c.48.16,1,.34,1.41.53.44.19.85.43,1.23.73.36.3.65.67.87,1.08.23.48.35,1,.33,1.53,0,.65-.12,1.29-.36,1.89-.25.58-.62,1.1-1.09,1.51-.51.44-1.11.78-1.75,1-2.53.85-5.32.31-7.35-1.43l.62-1c.07-.12.17-.22.28-.29.13-.07.27-.11.42-.1.2,0,.39.07.55.2.2.14.44.29.71.46.32.18.65.33,1,.45.48.14.99.21,1.49.2.47.03.94-.01,1.39-.14.37-.11.71-.29,1-.54.24-.21.44-.47.56-.77.13-.3.19-.62.19-.94,0-.36-.11-.71-.33-1-.24-.29-.54-.52-.87-.69-.4-.21-.81-.37-1.24-.5l-1.42-.45c-.48-.15-1-.33-1.42-.53-.44-.19-.86-.44-1.23-.75-.36-.31-.66-.69-.87-1.12-.26-.53-.39-1.12-.37-1.71,0-1.15.5-2.24,1.37-3,.49-.42,1.05-.74,1.65-.95.72-.24,1.48-.36,2.24-.35.9-.01,1.79.15,2.63.46.74.29,1.42.72,2,1.27l-.58.98Z"/>
  <path class="st2" d="M731.39,428.73c.84,0,1.67.14,2.45.45.73.29,1.4.72,1.95,1.28.56.6,1,1.31,1.27,2.08.33.9.49,1.86.47,2.82.02.28-.02.56-.13.82-.12.14-.31.22-.5.2h-9.9c0,.83.13,1.65.38,2.44.21.64.55,1.23,1,1.74.4.44.9.78,1.46,1,.61.23,1.25.35,1.9.34.57,0,1.14-.07,1.69-.23.42-.13.83-.29,1.22-.49.29-.15.58-.31.85-.49.18-.13.38-.2.6-.22.2,0,.38.08.5.24l.73.95c-.33.39-.73.73-1.16,1-.45.29-.93.53-1.44.71-.52.19-1.05.33-1.59.42-.54.09-1.08.14-1.62.14-.97,0-1.93-.17-2.83-.52-.85-.34-1.61-.86-2.24-1.52-.66-.72-1.16-1.56-1.47-2.48-.37-1.1-.54-2.25-.52-3.4-.01-.98.15-1.96.47-2.89.29-.86.76-1.65,1.37-2.33.61-.67,1.35-1.2,2.18-1.56.93-.37,1.92-.54,2.91-.5ZM731.44,430.65c-1.11-.07-2.19.33-3,1.09-.77.82-1.24,1.88-1.34,3h8.06c0-.56-.08-1.12-.25-1.66-.15-.48-.4-.92-.73-1.3-.33-.34-.74-.61-1.18-.78-.49-.22-1.02-.34-1.56-.35h0Z"/>
  <path class="st2" d="M740.85,443.78v-14.78h1.49c.21-.02.42.04.58.17.13.15.21.35.22.55l.18,2.31c.43-.94,1.07-1.77,1.88-2.42.75-.58,1.67-.89,2.62-.87.38,0,.75.04,1.12.14.32.09.63.22.91.39l-.33,1.94c-.04.22-.23.38-.45.37-.22-.02-.43-.06-.63-.14-.39-.1-.79-.15-1.19-.14-.83-.02-1.64.26-2.27.79-.68.64-1.21,1.42-1.53,2.3v9.43l-2.6-.04Z"/>
  <path class="st2" d="M769.36,436.94l.3.79c.1-.28.2-.54.31-.79s.22-.49.36-.75l7.09-12.88c.08-.18.22-.33.4-.42.19-.05.38-.07.58-.07h2.1v21h-2.5v-16.06c0-.24,0-.47.05-.71l-7.18,13.1c-.18.39-.57.65-1,.66h-.41c-.43-.01-.82-.27-1-.66l-7.37-13.15c0,.25.02.5.06.75v16.07h-2.49v-21h2.09c.2,0,.4.02.59.07.17.09.31.24.39.42l7.27,12.89c.14.24.26.48.36.74Z"/>
  <path class="st2" d="M796.08,443.78h-1.16c-.21,0-.42-.03-.62-.11-.17-.11-.28-.3-.3-.5l-.3-1.38c-.39.35-.77.67-1.14.95-.36.27-.75.51-1.16.7-.42.19-.86.33-1.31.43-.51.1-1.03.15-1.55.15-.55,0-1.09-.08-1.61-.25-.48-.15-.93-.39-1.31-.72-.38-.34-.69-.76-.89-1.23-.23-.55-.34-1.15-.33-1.75,0-.6.17-1.19.49-1.7.39-.6.92-1.1,1.55-1.44.89-.47,1.84-.81,2.82-1,1.4-.29,2.82-.43,4.25-.4v-1.16c.07-.94-.19-1.87-.73-2.63-.55-.62-1.36-.95-2.19-.89-.54-.01-1.08.07-1.6.24-.39.14-.77.32-1.13.54-.32.2-.59.38-.82.54-.2.15-.43.23-.68.24-.16,0-.33-.04-.46-.14-.13-.09-.23-.2-.31-.34l-.47-.83c.76-.75,1.66-1.35,2.65-1.77,1-.4,2.06-.6,3.14-.59.76-.01,1.51.13,2.21.41.61.26,1.17.65,1.62,1.14.46.51.8,1.12,1,1.77.23.74.34,1.51.34,2.28v9.44ZM789.32,442.19c.42,0,.84-.04,1.25-.14.37-.09.74-.22,1.08-.4.36-.17.69-.37,1-.62.32-.25.62-.53.9-.83v-3.06c-1,0-2.01.07-3,.23-.7.11-1.39.31-2.05.59-.45.19-.85.49-1.15.87-.24.33-.36.72-.36,1.12,0,.34.06.68.19,1,.12.27.3.5.52.69.22.19.48.33.76.4.28.09.57.14.86.15Z"/>
  <path class="st2" d="M800,443.78v-14.78h1.49c.21-.02.42.04.59.17.13.15.21.35.22.55l.18,2.31c.43-.94,1.07-1.77,1.88-2.42.75-.58,1.67-.89,2.62-.87.37,0,.75.04,1.11.14.32.09.63.22.92.39l-.33,1.94c-.04.22-.23.38-.46.37-.21-.02-.42-.07-.62-.14-.39-.1-.79-.15-1.19-.14-.83-.02-1.64.26-2.28.79-.68.64-1.2,1.43-1.52,2.3v9.43l-2.61-.04Z"/>
  <path class="st2" d="M814.52,422.24v12.68h.67c.16,0,.33-.02.48-.08.16-.08.31-.19.43-.33l4.68-5c.13-.14.28-.27.44-.38.17-.11.38-.16.58-.15h2.37l-5.46,5.81c-.12.16-.26.3-.4.44-.13.13-.29.25-.45.34.18.11.34.25.48.4.15.16.29.33.4.52l5.79,7.31h-2.34c-.19,0-.37-.04-.54-.12-.17-.1-.32-.23-.43-.39l-4.87-6.07c-.11-.17-.26-.3-.44-.4-.21-.07-.44-.11-.66-.1h-.73v7.08h-2.62v-21.56h2.62Z"/>
  <path class="st2" d="M831.63,444c-1,.06-1.98-.3-2.7-1-.67-.78-1.01-1.8-.94-2.83v-9.06h-1.79c-.14,0-.28-.05-.39-.14-.12-.12-.17-.28-.16-.44v-1l2.42-.3.6-4.58c.02-.14.09-.27.19-.36.12-.09.26-.14.41-.14h1.32v5.11h4.24v1.89h-4.24v8.85c-.04.51.12,1.01.46,1.39.31.3.73.46,1.16.45.24,0,.48-.03.71-.11.18-.06.36-.14.52-.24l.38-.24c.07-.07.17-.11.27-.11.16.02.29.11.36.25l.76,1.24c-.47.44-1.02.78-1.62,1-.63.24-1.29.37-1.96.37Z"/>
  <path class="st2" d="M838.05,448.8v-19.8h1.55c.34-.03.64.21.7.55l.22,1.75c.61-.75,1.35-1.38,2.18-1.86.86-.48,1.83-.72,2.81-.7.8,0,1.59.16,2.31.49.7.33,1.3.83,1.77,1.45.52.71.91,1.52,1.13,2.38.28,1.06.41,2.16.39,3.26.01,1.03-.14,2.06-.44,3.05-.26.88-.69,1.71-1.25,2.44-.54.68-1.22,1.24-2,1.62-.83.41-1.75.61-2.68.6-.81.02-1.61-.13-2.35-.46-.65-.31-1.23-.74-1.71-1.28v6.55l-2.63-.04ZM844.65,430.8c-.78-.02-1.56.18-2.23.58-.69.43-1.29,1-1.76,1.66v7.16c.39.58.94,1.05,1.57,1.36.6.28,1.25.41,1.91.4,1.24.07,2.43-.49,3.17-1.48.81-1.25,1.2-2.72,1.11-4.21.02-.84-.07-1.67-.25-2.49-.14-.61-.39-1.19-.74-1.7-.3-.44-.71-.78-1.19-1-.51-.2-1.05-.29-1.59-.27h0Z"/>
  <path class="st2" d="M857.09,422.24v21.54h-2.6v-21.54h2.6Z"/>
  <path class="st2" d="M872.56,443.78h-1.15c-.21,0-.42-.03-.62-.11-.17-.11-.28-.3-.3-.5l-.3-1.38c-.39.35-.76.67-1.14.95-.36.27-.75.5-1.16.7-.42.19-.86.34-1.31.43-.52.1-1.05.14-1.58.13-.55,0-1.1-.08-1.62-.25-.48-.15-.92-.39-1.3-.72-.38-.34-.69-.76-.89-1.23-.23-.55-.34-1.15-.33-1.75,0-.6.17-1.19.48-1.7.39-.6.93-1.09,1.56-1.44.89-.47,1.84-.81,2.82-1,1.4-.29,2.83-.43,4.26-.4v-1.16c.07-.94-.19-1.87-.74-2.63-.56-.62-1.36-.94-2.19-.89-.54-.01-1.08.07-1.6.24-.39.14-.77.32-1.13.54-.32.2-.59.38-.82.54-.2.15-.43.23-.68.24-.16,0-.33-.04-.46-.14-.13-.09-.23-.2-.31-.34l-.47-.83c.76-.75,1.66-1.35,2.65-1.77,1-.4,2.06-.6,3.14-.59.76-.01,1.51.13,2.21.41.61.26,1.17.65,1.62,1.14.45.52.79,1.12,1,1.77.23.74.34,1.51.33,2.28l.03,9.46ZM865.81,442.19c.42,0,.84-.04,1.25-.14.37-.09.74-.23,1.08-.4.36-.17.69-.38,1-.62.32-.26.62-.53.9-.83v-3.06c-1.02-.01-2.05.06-3.06.23-.7.11-1.39.31-2.05.59-.45.19-.85.49-1.15.87-.24.33-.36.72-.36,1.12,0,.34.06.68.19,1,.12.27.3.5.52.69.22.19.48.33.76.4.3.09.61.15.92.15Z"/>
  <path class="st2" d="M881,444c-1,.06-1.98-.3-2.7-1-.67-.79-1-1.8-.94-2.83v-9.06h-1.78c-.15,0-.29-.05-.4-.14-.11-.12-.17-.28-.16-.44v-1l2.43-.3.6-4.58c.02-.14.08-.27.19-.36.12-.09.26-.14.41-.14h1.35v5.11h4.24v1.89h-4.24v8.85c-.04.5.12,1.01.45,1.39.31.3.73.47,1.17.45.24,0,.48-.03.71-.11.18-.06.36-.14.52-.24l.37-.24c.07-.07.17-.11.27-.11.16.01.3.11.37.25l.76,1.24c-.47.44-1.02.78-1.62,1-.64.25-1.32.37-2,.37Z"/>
  <path class="st2" d="M897.76,430.08c0,.18-.03.36-.1.53-.06.17-.15.32-.26.46l-8,10.68h8.08v2h-11.17v-1.05c0-.16.04-.31.1-.45.06-.18.16-.34.27-.49l8.06-10.76h-8v-2h11l.02,1.08Z"/>
  <path class="st2" d="M900.09,442.17c0-.24.05-.48.14-.71.09-.22.22-.42.38-.59.17-.17.36-.3.58-.39.23-.1.47-.15.72-.15.24,0,.49.05.71.15.22.09.42.22.59.39.17.17.3.37.39.59.09.23.14.47.14.71,0,.25-.05.5-.14.73-.09.21-.22.41-.39.57-.17.17-.37.31-.59.39-.22.1-.47.14-.71.14-.25,0-.49-.04-.72-.14-.22-.09-.42-.22-.58-.39-.34-.35-.53-.81-.52-1.3h0Z"/>
  <path class="st1" d="M243.87,268.44c1.35-.86,2.76-1.61,4.24-2.23-1.48.62-2.89,1.37-4.24,2.23Z"/>
  <path class="st1" d="M270,266.3c1.06.47,2.08,1.01,3.07,1.61-.99-.6-2.01-1.14-3.07-1.61Z"/>
  <path class="st1" d="M274.56,268.76c1.47.99,2.84,2.11,4.1,3.35-1.26-1.25-2.63-2.37-4.1-3.35Z"/>
  <path class="st1" d="M248.9,265.89c1.45-.57,2.95-1.02,4.48-1.33-1.53.31-3.03.76-4.48,1.33Z"/>
  <path class="st1" d="M357.88,351.33c1.98,2.04,3.64,4.37,4.91,6.91-1.27-2.54-2.93-4.87-4.91-6.91Z"/>
  <path class="st1" d="M239.29,272.12c1.23-1.22,2.57-2.31,4-3.28-1.43.97-2.77,2.06-4,3.28Z"/>
  <path class="st1" d="M152.38,366.2c0-.16,0-.33.05-.49-.03.16-.02.29-.05.49Z"/>
  <path class="st1" d="M261.78,264.11c-.86-.08-1.72-.12-2.58-.12,1.34.03,2.68.16,4,.38-.47-.07-.94-.22-1.42-.26Z"/>
  <path class="st2" d="M357.88,390.71l-79.22,79.21c-10.87,10.87-28.5,10.88-39.37,0,0,0,0,0,0,0l-79.21-79.21c-5.24-5.22-8.17-12.32-8.15-19.71h0v9.77c-.01,7.38,2.92,14.47,8.15,19.68l79.21,79.21c10.87,10.87,28.5,10.88,39.37,0h0s79.22-79.22,79.22-79.22c5.21-5.22,8.13-12.29,8.12-19.66h0v-9.79c.02,7.39-2.9,14.48-8.12,19.71Z"/>
  <path class="st1" d="M153.23,363c.69-2.36,1.7-4.61,3-6.7-1.3,2.09-2.31,4.34-3,6.7Z"/>
  <path class="st1" d="M265.18,264.74c1.02.24,2.02.53,3,.89-.98-.36-1.98-.65-3-.89Z"/>
  <path class="st1" d="M254.13,264.43c1.57-.29,3.17-.44,4.77-.46-1.6.02-3.2.17-4.77.46Z"/>
  <path class="st0" d="M253.38,264.56l.75-.13-.75.13Z"/>
  <path class="st0" d="M156.19,356.31c1.1-1.81,2.4-3.48,3.88-5-1.48,1.52-2.78,3.19-3.88,5Z"/>
  <path class="st0" d="M151.92,371c.01-1.62.17-3.24.46-4.83-.29,1.59-.45,3.21-.46,4.83Z"/>
  <path class="st0" d="M248.11,266.21l.79-.32-.79.32Z"/>
  <path class="st0" d="M152.43,365.71c.18-.92.53-1.8.8-2.7-.23.9-.62,1.78-.8,2.7Z"/>
  <path class="st0" d="M258.9,264h.3-.3Z"/>
  <path class="st0" d="M243.31,268.84l.56-.4-.56.4Z"/>
  <path class="st0" d="M366,371c-.04-4.46-1.15-8.84-3.24-12.78,2.09,3.94,3.2,8.32,3.24,12.78Z"/>
  <path class="st0" d="M263.21,264.37c.66.1,1.32.22,2,.37-.68-.15-1.34-.27-2-.37Z"/>
  <path class="st0" d="M273.09,267.91c.49.29,1,.53,1.47.85-.48-.32-.98-.56-1.47-.85Z"/>
  <path class="st0" d="M268.19,265.63c.61.21,1.23.41,1.83.67-.6-.3-1.21-.46-1.83-.67Z"/>
  <path class="st1" d="M239.28,469.92c10.87,10.87,28.5,10.88,39.37,0h0s79.22-79.22,79.22-79.22c5.22-5.23,8.14-12.32,8.12-19.71h0c-.17-7.35-3.07-14.37-8.15-19.69l-79.22-79.22c-1.26-1.24-2.63-2.36-4.1-3.35-.48-.32-1-.56-1.47-.85-.99-.59-2.01-1.13-3.06-1.59-.6-.26-1.22-.46-1.83-.67-.98-.36-1.98-.65-3-.89-.65-.15-1.31-.27-2-.37-1.32-.22-2.66-.35-4-.38h-.3c-1.6.02-3.2.17-4.77.46l-.75.13c-1.53.31-3.03.76-4.48,1.33l-.79.32c-1.48.62-2.89,1.37-4.24,2.23l-.56.4c-1.43.97-2.77,2.06-4,3.28l-79.22,79.21c-1.48,1.52-2.78,3.19-3.88,5-1.3,2.09-2.31,4.34-3,6.7-.27.9-.62,1.78-.8,2.7,0,.16,0,.33-.05.49-.29,1.59-.45,3.21-.46,4.83-.01,7.38,2.92,14.47,8.15,19.68l79.26,79.17ZM219.14,410.85s.67-38.85,35.86-35.85c3,35.19-35.86,35.85-35.86,35.85ZM257.9,458.1s-27-28,0-50.75c27.01,22.8,0,50.75,0,50.75ZM263,375c35.19-3,35.85,35.84,35.85,35.84,0,0-38.85-.65-35.85-35.84ZM346.05,370s-27.94,27-50.75,0c22.81-27.06,50.75,0,50.75,0ZM298.81,331.24s-.66,38.76-35.81,35.76c-3-35.15,35.81-35.81,35.81-35.81v.05ZM260.05,284s27,27.94,0,50.75c-27.05-22.86,0-50.75,0-50.75ZM255,367c-35.18,3-35.85-35.84-35.85-35.84,0,0,38.85.69,35.85,35.84ZM222.66,372.07c-22.81,27-50.75,0-50.75,0,0,0,27.93-26.98,50.74.03v-.03Z"/>
  <path class="st1" d="M913.71,316.06c0-9.5,7.64-16,16.98-16s16.89,6.5,16.89,16-7.64,16-16.89,16-16.98-6.5-16.98-16ZM943.99,316.06c0-7.63-5.75-13.07-13.3-13.07s-13.39,5.44-13.39,13.07,5.84,12.99,13.39,12.99,13.3-5.28,13.3-12.99ZM924.13,307.62h6.83c3.77,0,7.1,1.38,7.1,5.28,0,1.95-1.35,3.82-3.41,4.47l4.13,6.74h-4.13l-3.14-5.68h-3.68v5.68h-3.68v-16.49ZM930.15,315.82c2.43,0,3.86-.97,3.86-2.76,0-1.54-.99-2.68-3.68-2.68h-2.52v5.44h2.34Z"/>
</svg>